:SAMPLES-PER-SECOND 30
:FULLY-SPECIFIED
:DEGREES
346
root  21.0268 40.1096 6.24267 179.602 16.7273 179.078
RightUpLeg  -2.59668 -16.7435 -13.6575
RightLeg  9.89561 -40.948 2.92305
RightFoot  -1.92874 -0.796046 9.48555
RightToes  0.00048216 0.542163 -0.142577
Spine  17.1441 0.34441 11.2305
Spine1  7.46877 3.84439 -7.6145
HEad  -25.9976 53.3442 -40.7367
LeftShoulder1  9.37091 -14.2704 -45.9805
LeftArm  -18.8657 23.1726 -24.5142
LeftForeArm  95.828 -79.1485 -104.8
LeftHand  -0.25398 0.0180481 5.50724
RightShoulder  5.15341 9.58379 33.4337
RightArm  -8.34064 -27.607 22.1602
RightForeArm  50.916 76.6924 112.475
RightHand  0.94646 -17.8389 -9.61987
LeftUpLeg  -16.8882 11.296 7.64014
LeftLeg  17.2431 6.25392 2.49282
LeftFoot  -0.800534 0.281697 -2.97143
LeftToes  1.06246e-005 4.65856e-005 -8.18501e-006
347
root  19.9074 40.0166 5.80595 179.871 12.228 179.673
RightUpLeg  0.295167 -16.9232 -15.4213
RightLeg  6.83721 -44.3218 4.28203
RightFoot  -1.28519 -1.18302 13.2851
RightToes  0.00048216 0.542163 -0.142577
Spine  15.4232 0.307826 10.8601
Spine1  7.71558 3.53943 -7.0414
HEad  -24.2914 52.853 -38.5799
LeftShoulder1  9.27962 -13.9628 -46.3446
LeftArm  -20.2309 24.5324 -24.3483
LeftForeArm  97.0863 -79.0735 -106.16
LeftHand  -0.25398 0.0180481 5.50724
RightShoulder  5.15292 9.35894 34.112
RightArm  -8.81697 -27.6455 23.1462
RightForeArm  52.7928 76.6091 113.516
RightHand  1.01804 -18.5624 -9.73773
LeftUpLeg  -15.7253 11.6331 10.8294
LeftLeg  17.5173 8.3873 3.27322
LeftFoot  -2.10344 0.00628357 0.103851
LeftToes  1.06246e-005 4.65856e-005 -8.18501e-006
348
root  18.6783 39.9191 5.31677 179.924 7.62175 179.629
RightUpLeg  2.91006 -17.2235 -17.7976
RightLeg  4.69682 -47.2238 4.97742
RightFoot  -0.147717 -1.46282 14.8537
RightToes  0.00048216 0.542163 -0.142577
Spine  13.9643 0.217283 10.3834
Spine1  7.91121 3.35341 -7.1961
HEad  -22.0331 51.8689 -35.8014
LeftShoulder1  9.10294 -13.6267 -46.3536
LeftArm  -20.8671 25.0932 -23.984
LeftForeArm  95.9147 -79.1087 -105.245
LeftHand  -0.25398 0.0180481 5.50724
RightShoulder  5.16144 9.20261 34.6646
RightArm  -9.66067 -28.2205 24.4945
RightForeArm  55.7032 76.4427 115.334
RightHand  1.04615 -19.0846 -9.62013
LeftUpLeg  -14.7075 15.4145 11.5411
LeftLeg  17.7361 13.5525 5.11171
LeftFoot  -3.25943 -0.11778 1.89991
LeftToes  1.06246e-005 4.65856e-005 -8.18501e-006
349
root  17.3118 39.7724 4.76512 -179.586 2.42733 179.114
RightUpLeg  4.88182 -17.6721 -20.5289
RightLeg  3.67835 -49.1186 4.80559
RightFoot  0.710409 -1.59144 15.0505
RightToes  0.00048216 0.542163 -0.142577
Spine  12.0318 0.133362 10.0516
Spine1  8.39102 3.25073 -7.78974
HEad  -19.5163 49.7622 -32.8436
LeftShoulder1  8.96496 -13.4343 -46.1646
LeftArm  -20.3515 24.7935 -23.348
LeftForeArm  94.2359 -79.1601 -103.878
LeftHand  -0.25398 0.0180481 5.50724
RightShoulder  5.17441 9.17026 34.8681
RightArm  -10.8067 -29.5676 25.7183
RightForeArm  59.2439 76.0959 118.36
RightHand  1.07758 -19.4194 -9.65576
LeftUpLeg  -14.7127 21.2441 9.9288
LeftLeg  18.0516 17.9005 6.70712
LeftFoot  -2.7501 0.00305066 0.255755
LeftToes  1.06246e-005 4.65856e-005 -8.18501e-006
350
root  15.8172 39.5663 4.16101 -178.762 -3.34053 178.364
RightUpLeg  6.50648 -17.9567 -23.2674
RightLeg  3.70596 -47.6245 3.71754
RightFoot  -0.0223229 -1.48815 14.9687
RightToes  0.00048216 0.542163 -0.142577
Spine  9.89391 0.269003 9.55452
Spine1  8.99904 3.23141 -7.85054
HEad  -16.7857 46.3596 -29.7883
LeftShoulder1  8.94333 -13.4278 -46.0679
LeftArm  -18.7876 23.8264 -22.7452
LeftForeArm  94.0405 -79.1604 -103.773
LeftHand  -0.25398 0.0180481 5.50724
RightShoulder  5.13353 9.17329 34.5406
RightArm  -12.0441 -31.7717 26.3738
RightForeArm  62.6914 75.5708 122.064
RightHand  1.11102 -19.6688 -9.75965
LeftUpLeg  -16.0071 27.7673 6.63603
LeftLeg  18.9195 15.7743 6.21618
LeftFoot  -1.61871 0.275261 -3.16956
LeftToes  1.06246e-005 4.65856e-005 -8.18501e-006
